<?xml version="1.0" encoding="UTF-8"?>
<svg id="Layer_1" data-name="Layer 1" xmlns="http://www.w3.org/2000/svg" viewBox="0 0 512 512">
  <defs>
    <style>
      .cls-1, .cls-2, .cls-3, .cls-4, .cls-5, .cls-6, .cls-7, .cls-8 {
        fill: #7c6af7;
      }

      .cls-2 {
        opacity: .2;
      }

      .cls-2, .cls-3, .cls-9, .cls-10, .cls-4, .cls-5, .cls-6, .cls-7, .cls-8 {
        isolation: isolate;
      }

      .cls-3 {
        opacity: .35;
      }

      .cls-9 {
        opacity: .12;
      }

      .cls-11 {
        opacity: .2;
      }

      .cls-4 {
        opacity: .45;
      }

      .cls-12 {
        fill: #cdd6f4;
      }

      .cls-5 {
        opacity: .28;
      }

      .cls-6 {
        opacity: .55;
      }

      .cls-7 {
        opacity: .75;
      }

      .cls-13 {
        fill: #1e1e2e;
      }

      .cls-8 {
        opacity: .65;
      }
    </style>
  </defs>
  <rect class="cls-13" width="512" height="512" rx="90" ry="90"/>
  <g class="cls-11">
    <rect class="cls-3" x="50.87" y="320.53" width="23.22" height="103.21" rx="4" ry="4"/>
    <rect class="cls-4" x="89.57" y="281.83" width="23.22" height="141.91" rx="4" ry="4"/>
    <rect class="cls-6" x="128.28" y="243.12" width="23.22" height="180.62" rx="4" ry="4"/>
    <rect class="cls-8" x="166.98" y="204.42" width="23.22" height="219.32" rx="4" ry="4"/>
    <rect class="cls-7" x="205.69" y="227.64" width="23.22" height="196.1" rx="4" ry="4"/>
    <rect class="cls-8" x="244.39" y="262.48" width="23.22" height="161.27" rx="4" ry="4"/>
    <rect class="cls-6" x="283.09" y="292.15" width="23.22" height="131.59" rx="4" ry="4"/>
    <rect class="cls-4" x="321.8" y="315.37" width="23.22" height="108.37" rx="4" ry="4"/>
    <rect class="cls-3" x="360.5" y="330.85" width="23.22" height="92.89" rx="4" ry="4"/>
    <rect class="cls-5" x="399.2" y="341.17" width="23.22" height="82.57" rx="4" ry="4"/>
    <rect class="cls-2" x="437.91" y="348.91" width="23.22" height="74.83" rx="4" ry="4"/>
  </g>
  <g>
    <g class="cls-9">
      <path class="cls-1" d="M152.5,151.59h-63.75v44.35h58.58v33.01h-58.58v70.18h-40.69V118.45h104.44v33.13Z"/>
      <path class="cls-1" d="M286.68,151.59h-63.75v44.35h58.58v33.01h-58.58v70.18h-40.69V118.45h104.44v33.13Z"/>
      <path class="cls-1" d="M463.94,299.12h-48.25l-31.12-58.84c-1.18-2.18-2.39-6.22-3.65-12.09h-.5c-.59,2.77-1.97,6.97-4.16,12.6l-31.25,58.33h-48.51l57.58-90.33-52.66-90.33h49.51l25.83,54.18c2.02,4.28,3.82,9.37,5.42,15.24h.5c1.01-3.53,2.9-8.78,5.67-15.75l28.73-53.67h45.36l-54.18,89.58,55.69,91.09Z"/>
    </g>
    <g>
      <path class="cls-12" d="M162.8,152.33h-56.74v39.47h52.14v29.38h-52.14v62.46h-36.22V122.84h92.96v29.49Z"/>
      <path class="cls-12" d="M282.22,152.33h-56.74v39.47h52.14v29.38h-52.14v62.46h-36.22V122.84h92.96v29.49Z"/>
      <path class="cls-12" d="M439.98,283.64h-42.95l-27.7-52.36c-1.05-1.94-2.13-5.53-3.25-10.76h-.45c-.52,2.47-1.76,6.21-3.7,11.21l-27.81,51.92h-43.17l51.24-80.4-46.87-80.4h44.07l22.99,48.22c1.79,3.81,3.4,8.34,4.82,13.57h.45c.9-3.14,2.58-7.81,5.05-14.02l25.57-47.77h40.37l-48.22,79.72,49.56,81.07Z"/>
    </g>
  </g>
  <path class="cls-1" d="M57.97,306.86h396.07c1.78,0,3.23,1.44,3.23,3.23h0c0,1.78-1.44,3.23-3.23,3.23H57.97c-1.78,0-3.23-1.44-3.23-3.23h0c0-1.78,1.44-3.23,3.23-3.23Z"/>
  <g class="cls-10">
    <path class="cls-1" d="M59.38,392.65v-54.32h19.89c3.85,0,7.05.63,9.57,1.9,2.53,1.26,4.42,2.97,5.68,5.12,1.26,2.15,1.88,4.57,1.88,7.25,0,2.26-.42,4.17-1.25,5.71-.83,1.55-1.94,2.79-3.33,3.71-1.39.93-2.91,1.6-4.58,2.03v.53c1.8.09,3.57.67,5.29,1.74,1.72,1.07,3.15,2.59,4.28,4.55,1.13,1.96,1.7,4.35,1.7,7.16s-.65,5.26-1.95,7.47c-1.3,2.2-3.3,3.94-6.01,5.22-2.71,1.28-6.16,1.92-10.37,1.92h-20.82ZM67.58,361.83h10.98c1.84,0,3.5-.35,4.97-1.06,1.48-.71,2.65-1.7,3.53-2.98.88-1.28,1.31-2.8,1.31-4.55,0-2.25-.79-4.13-2.36-5.65s-3.99-2.28-7.24-2.28h-11.19v16.52ZM67.58,385.62h11.83c3.93,0,6.74-.76,8.43-2.28,1.7-1.52,2.55-3.42,2.55-5.7,0-1.71-.43-3.29-1.3-4.72-.87-1.43-2.1-2.57-3.7-3.42-1.6-.85-3.5-1.27-5.69-1.27h-12.12v17.4Z"/>
    <path class="cls-1" d="M158.48,338.33h8.22v35.72c0,3.8-.89,7.17-2.68,10.09-1.79,2.93-4.3,5.22-7.53,6.9-3.24,1.67-7.03,2.51-11.38,2.51s-8.12-.83-11.35-2.51c-3.24-1.67-5.75-3.97-7.53-6.9-1.79-2.93-2.68-6.29-2.68-10.09v-35.72h8.2v35.06c0,2.46.54,4.64,1.63,6.55,1.09,1.91,2.63,3.41,4.63,4.5,2,1.09,4.37,1.63,7.11,1.63s5.14-.54,7.15-1.63c2.01-1.09,3.54-2.58,4.61-4.5,1.07-1.91,1.6-4.09,1.6-6.55v-35.06Z"/>
    <path class="cls-1" d="M202.14,338.33v54.32h-8.2v-54.32h8.2Z"/>
    <path class="cls-1" d="M229.38,392.65v-54.32h8.2v47.26h24.61v7.05h-32.81Z"/>
    <path class="cls-1" d="M304.42,392.65h-17.58v-54.32h18.14c5.32,0,9.89,1.08,13.71,3.25,3.82,2.17,6.75,5.27,8.79,9.31,2.04,4.04,3.06,8.88,3.06,14.52s-1.03,10.52-3.09,14.59c-2.06,4.07-5.04,7.19-8.92,9.38s-8.59,3.28-14.11,3.28ZM295.03,385.49h8.94c4.14,0,7.58-.78,10.32-2.35,2.74-1.57,4.79-3.84,6.15-6.82s2.04-6.62,2.04-10.91-.68-7.88-2.03-10.85c-1.35-2.97-3.36-5.23-6.03-6.76s-5.99-2.31-9.95-2.31h-9.44v40Z"/>
    <path class="cls-1" d="M356.04,392.65v-54.32h34.05v7.05h-25.86v16.55h24.08v7.03h-24.08v16.63h26.18v7.05h-34.37Z"/>
    <path class="cls-1" d="M416.39,392.65v-54.32h19.36c4.21,0,7.71.72,10.49,2.17,2.79,1.45,4.87,3.45,6.25,6.01s2.07,5.5,2.07,8.84-.69,6.25-2.08,8.77c-1.39,2.52-3.47,4.48-6.26,5.88-2.78,1.4-6.28,2.09-10.49,2.09h-14.67v-7.05h13.92c2.65,0,4.81-.38,6.48-1.14,1.67-.76,2.89-1.87,3.67-3.32.78-1.45,1.17-3.19,1.17-5.22s-.39-3.83-1.18-5.33c-.79-1.5-2.02-2.66-3.69-3.46-1.67-.8-3.86-1.21-6.56-1.21h-10.29v47.29h-8.2ZM443.2,368.14l13.42,24.51h-9.34l-13.15-24.51h9.07Z"/>
  </g>
</svg>